# xmcd CD database file
#
# Track frame offsets:
#	150
#	15907
#	33435
#	51867
#	74287
#	89515
#	101637
#	117527
#	132807
#	150885
#	167505
#
# Disc length: 2436 seconds
#
# Revision: 0
# Processed by: cddbd v1.4PL0 Copyright (c) Steve Scherf et al.
# Submitted via: Feurio! 1.63 - http://www.feurio.com
#
DISCID=8209820b
DTITLE=Time Out Blues Band - Live
DYEAR=1991
DGENRE=blues
TTITLE0=I Could Have Loved You
TTITLE1=My First Crime
TTITLE2=Woke Up This Morning
TTITLE3=Stormy Monday Blues
TTITLE4=Something's Gotta Hold On Me
TTITLE5=Ain't That Fine
TTITLE6=Please Don't Leave
TTITLE7=Radiate That Charme
TTITLE8=Come Back Baby
TTITLE9=Taking Care Of Business
TTITLE10=True Love
EXTD=
EXTT0=
EXTT1=
EXTT2=
EXTT3=
EXTT4=
EXTT5=
EXTT6=
EXTT7=
EXTT8=
EXTT9=
EXTT10=
PLAYORDER=
